<svg width="109" height="109" viewBox="0 0 109 109" fill="none" xmlns="http://www.w3.org/2000/svg">
<rect width="109" height="109" rx="54.5" fill="#27201A"/>
<path fill-rule="evenodd" clip-rule="evenodd" d="M22 49.7059V74.4119L23.0282 75.4552C23.5936 76.029 24.2966 76.7531 24.5903 77.0643C24.8839 77.3757 25.6431 78.1424 26.2776 78.7683C26.9119 79.3942 27.5733 80.0517 27.7473 80.2293C27.9213 80.407 28.4153 80.8848 28.8451 81.2909L29.6265 82.0294H32.5093H35.3921L35.4188 65.7067L35.4455 49.384L38.5036 52.4316C40.1856 54.1077 42.1075 56.0066 42.7745 56.6514C43.4415 57.2962 44.3669 58.2285 44.8309 58.7231C45.2949 59.2177 46.1728 60.0992 46.7818 60.6819C47.3908 61.2647 48.0789 61.9357 48.3109 62.1733C48.5429 62.4107 49.507 63.386 50.4533 64.3405C51.3996 65.2951 52.7982 66.708 53.5614 67.4805C54.3245 68.2531 54.9803 68.8851 55.0188 68.8851C55.0573 68.8851 56.3161 67.6457 57.8162 66.131C59.3162 64.6162 60.6285 63.2925 60.7323 63.1894C60.8361 63.0863 61.7495 62.1801 62.7623 61.1756C63.775 60.1711 64.603 59.3125 64.6022 59.2676C64.6013 59.2226 63.8571 58.4703 62.9483 57.5958C62.0396 56.7213 59.8218 54.5225 58.0199 52.7094C56.2179 50.8964 54.5114 49.2116 54.2276 48.9653C53.9439 48.719 53.5956 48.3455 53.4536 48.1353C53.3118 47.9251 53.0693 47.6558 52.9151 47.5369C52.6261 47.3142 50.5598 45.2446 49.5117 44.1281C49.1862 43.7812 47.1728 41.7802 45.0377 39.6814C42.9026 37.5825 40.1516 34.8635 38.9243 33.6392C37.697 32.4149 36.5784 31.3118 36.4383 31.1878C36.2983 31.0639 34.8609 29.621 33.2443 27.9812L30.3049 25H26.1525H22V49.7059ZM78.9315 25.8745C78.7999 26.0639 78.4376 26.4814 78.1264 26.802C76.5981 28.3764 65.6756 39.3902 64.7364 40.3039L63.6608 41.3504L61.1726 38.8729C59.804 37.5102 57.1769 34.8844 55.3346 33.0377L51.9848 29.6802L51.2552 30.3914C50.8538 30.7825 49.5052 32.1404 48.2582 33.4089C47.0112 34.6774 45.8367 35.8659 45.6482 36.0501C45.4596 36.2344 45.3055 36.4928 45.3055 36.6245C45.3055 36.7891 45.7744 37.3479 46.8082 38.4155C47.6346 39.269 48.4679 40.1159 48.6599 40.2975C48.8518 40.4792 52.4275 44.0522 56.606 48.2373C60.7844 52.4225 64.239 55.8467 64.2829 55.8467C64.3467 55.8467 74.8783 45.3162 75.7493 44.3815C75.8764 44.2451 77.0153 43.1016 78.2802 41.8406C79.5451 40.5795 81.0621 39.0531 81.6515 38.4485C82.2408 37.8439 83.0713 37.0062 83.497 36.5868C83.9226 36.1675 84.4608 35.6189 84.6928 35.3678C84.9249 35.1167 85.5066 34.5407 85.9855 34.0878L86.8562 33.2644L85.8272 32.2648C85.2612 31.715 84.7033 31.1634 84.5873 31.0389C83.1269 29.471 79.2864 25.53 79.2189 25.53C79.1924 25.53 79.063 25.6851 78.9315 25.8745ZM87.2652 35.8801C87.0103 36.1505 86.2738 36.9019 85.6285 37.5496C84.9833 38.1973 83.6545 39.5526 82.6758 40.5613C81.6971 41.5699 80.5415 42.7386 80.1078 43.1583C79.674 43.578 79.152 44.1091 78.9478 44.3383C78.7435 44.5675 77.915 45.4262 77.1065 46.2463C76.2982 47.0666 75.3609 48.0345 75.0238 48.3974L74.4109 49.0573V61.6391V74.2211L74.9645 74.7633C75.2691 75.0616 76.5622 76.364 77.8382 77.6576C79.1142 78.9512 80.6096 80.464 81.1613 81.0195L82.1645 82.0294H85.0894H88.0145V58.7088C88.0145 39.1517 87.9914 35.3883 87.8715 35.3883C87.7929 35.3883 87.5201 35.6096 87.2652 35.8801ZM107.313 107.152V108H108.156H109V107.152V106.304H108.156H107.313V107.152Z" fill="#E3E3E3"/>
</svg>
