<svg width="641" height="640" viewBox="0 0 641 640" fill="none" xmlns="http://www.w3.org/2000/svg">
<g clip-path="url(#clip0_1524_154)">
<path fill-rule="evenodd" clip-rule="evenodd" d="M320.667 146.853C416.473 146.853 494.147 224.531 494.147 320.333C494.147 416.136 416.469 493.813 320.667 493.813C224.864 493.813 147.187 416.136 147.187 320.333C147.187 224.531 224.864 146.853 320.667 146.853ZM518.107 94.6974L478.471 134.333C470.684 142.12 470.684 154.749 478.471 162.536C486.257 170.322 498.887 170.322 506.673 162.536L546.309 122.9C554.096 115.114 554.096 102.484 546.309 94.6974C538.517 86.911 525.893 86.911 518.107 94.6974ZM619.825 300.391C630.841 300.391 639.768 309.318 639.768 320.333C639.768 331.349 630.841 340.276 619.825 340.276H563.773C552.758 340.276 543.831 331.349 543.831 320.333C543.831 309.318 552.763 300.391 563.773 300.391H619.825ZM546.309 517.777L506.673 478.141C498.887 470.355 486.257 470.355 478.471 478.141C470.684 485.928 470.684 498.557 478.471 506.344L518.107 545.98C525.893 553.766 538.523 553.766 546.309 545.98C554.096 538.188 554.096 525.564 546.309 517.777ZM340.616 619.496C340.616 630.512 331.689 639.439 320.673 639.439C309.658 639.439 300.731 630.512 300.731 619.496V563.444C300.731 552.429 309.658 543.501 320.673 543.501C331.689 543.501 340.616 552.434 340.616 563.444V619.496ZM123.229 545.98L162.865 506.344C170.652 498.558 170.652 485.928 162.865 478.141C155.079 470.355 142.449 470.355 134.663 478.141L95.0265 517.777C87.2401 525.564 87.2401 538.193 95.0265 545.98C102.818 553.766 115.443 553.766 123.229 545.98ZM21.5105 340.287C10.4949 340.287 1.56787 331.36 1.56787 320.344C1.56787 309.329 10.4949 300.401 21.5105 300.401H77.5625C88.5781 300.401 97.5052 309.329 97.5052 320.344C97.5052 331.36 88.5729 340.287 77.5625 340.287H21.5105ZM95.0265 122.9L134.663 162.536C142.449 170.322 155.079 170.322 162.865 162.536C170.652 154.75 170.652 142.12 162.865 134.333L123.229 94.6974C115.443 86.911 102.813 86.911 95.0265 94.6974C87.2401 102.489 87.2401 115.113 95.0265 122.9ZM300.72 21.1814C300.72 10.1658 309.647 1.23877 320.663 1.23877C331.678 1.23877 340.605 10.1658 340.605 21.1814V77.2334C340.605 88.249 331.678 97.1761 320.663 97.1761C309.647 97.1761 300.72 88.2438 300.72 77.2334V21.1814Z" fill="white"/>
</g>
<rect x="0.5" y="0.5" width="640" height="639" stroke="black"/>
<defs>
<clipPath id="clip0_1524_154">
<rect x="1" y="1" width="639" height="638" fill="white"/>
</clipPath>
</defs>
</svg>
