<svg width="638" height="637" viewBox="0 0 638 637" fill="none" xmlns="http://www.w3.org/2000/svg">
<g clip-path="url(#clip0_1524_75)">
<path fill-rule="evenodd" clip-rule="evenodd" d="M414.027 45.5647C515.953 147.507 515.948 312.525 414.027 414.471C307.683 520.835 134 515.607 34.0265 402.706C27.7557 395.622 17.2772 393.982 9.14654 398.826C1.0476 403.649 -2.51493 413.68 0.719474 422.534C17.2248 467.752 42.9701 507.914 77.0115 541.96C205.366 670.315 413.132 670.288 541.492 541.96C669.888 413.596 669.898 205.827 541.492 77.4669C507.45 43.4362 467.278 17.6802 422.07 1.18022C413.232 -2.04378 403.185 1.52397 398.367 9.60729C393.524 17.7376 395.149 28.222 402.237 34.498C406.279 38.0605 410.216 41.7584 414.024 45.5709L414.027 45.5647Z" fill="#27201A"/>
</g>
<defs>
<clipPath id="clip0_1524_75">
<rect width="638" height="637" fill="white"/>
</clipPath>
</defs>
</svg>
