<svg width="626" height="538" viewBox="0 0 626 538" fill="none" xmlns="http://www.w3.org/2000/svg">
<g clip-path="url(#clip0_7_14)">
<path fill-rule="evenodd" clip-rule="evenodd" d="M0 233.069V466.139L9.75 475.981C15.112 481.394 21.778 488.225 24.563 491.161C27.347 494.098 34.547 501.331 40.563 507.236C46.578 513.14 52.85 519.343 54.5 521.019C56.15 522.695 60.835 527.202 64.91 531.033L72.32 538H99.657H126.994L127.247 384.016L127.5 230.032L156.5 258.782C172.45 274.594 190.675 292.508 197 298.591C203.325 304.674 212.1 313.469 216.5 318.135C220.9 322.801 229.225 331.117 235 336.614C240.775 342.112 247.3 348.442 249.5 350.683C251.7 352.923 260.842 362.123 269.816 371.128C278.789 380.133 292.052 393.462 299.289 400.75C306.525 408.038 312.744 414 313.109 414C313.474 414 325.411 402.308 339.636 388.019C353.861 373.729 366.305 361.241 367.289 360.269C368.273 359.296 376.935 350.747 386.539 341.271C396.142 331.795 403.994 323.695 403.986 323.271C403.978 322.847 396.921 315.75 388.303 307.5C379.686 299.25 358.655 278.507 341.568 261.403C324.48 244.3 308.298 228.406 305.607 226.082C302.916 223.759 299.613 220.235 298.267 218.252C296.922 216.269 294.623 213.729 293.16 212.607C290.42 210.506 270.826 190.982 260.887 180.449C257.8 177.177 238.708 158.3 218.461 138.5C198.214 118.7 172.127 93.05 160.489 81.5C148.851 69.95 138.243 59.544 136.915 58.374C135.587 57.205 121.957 43.593 106.627 28.124L78.753 0H39.377H0V233.069ZM539.868 8.25C538.62 10.037 535.184 13.975 532.233 17C517.741 31.852 414.165 135.753 405.259 144.373L395.059 154.245L371.464 130.873C358.486 118.018 333.574 93.247 316.104 75.826L284.339 44.152L277.42 50.861C273.614 54.551 260.825 67.361 249 79.327C237.175 91.294 226.038 102.506 224.25 104.244C222.462 105.982 221 108.42 221 109.662C221 111.215 225.447 116.487 235.25 126.558C243.087 134.61 250.989 142.599 252.809 144.313C254.629 146.027 288.537 179.733 328.16 219.215C367.783 258.697 400.542 291 400.959 291C401.564 291 501.432 191.658 509.692 182.84C510.897 181.553 521.697 170.766 533.692 158.87C545.686 146.973 560.072 132.573 565.661 126.87C571.249 121.166 579.124 113.263 583.161 109.307C587.197 105.351 592.301 100.176 594.501 97.807C596.702 95.438 602.218 90.004 606.759 85.732L615.016 77.964L605.258 68.534C599.891 63.348 594.6 58.144 593.5 56.969C579.652 42.178 543.233 5 542.593 5C542.342 5 541.115 6.463 539.868 8.25ZM618.894 102.64C616.477 105.191 609.493 112.279 603.374 118.39C597.255 124.5 584.655 137.285 575.374 146.801C566.093 156.316 555.135 167.341 551.022 171.301C546.909 175.26 541.959 180.27 540.022 182.432C538.085 184.595 530.228 192.695 522.562 200.432C514.897 208.17 506.009 217.301 502.812 220.725L497 226.95V345.644V464.339L502.25 469.454C505.138 472.268 517.4 484.554 529.5 496.758C541.6 508.961 555.781 523.233 561.012 528.473L570.525 538H598.262H626V318C626 133.503 625.781 98 624.644 98C623.898 98 621.311 100.088 618.894 102.64ZM809 775V783H817H825V775V767H817H809V775Z" fill="#E3E3E3"/>
</g>
<defs>
<clipPath id="clip0_7_14">
<rect width="626" height="538" fill="white"/>
</clipPath>
</defs>
</svg>
