<svg width="24" height="24" viewBox="0 0 24 24" fill="none" xmlns="http://www.w3.org/2000/svg">
<g clip-path="url(#clip0_103_2)">
<path d="M8.99985 15.0001V9.00011L16.7449 19.6501C14.8282 20.8406 12.5344 21.2678 10.3177 20.847C8.10107 20.4262 6.1233 19.1882 4.77622 17.3783C3.42915 15.5683 2.81105 13.3184 3.04437 11.0742C3.27768 8.83006 4.34539 6.7554 6.03598 5.26123C7.72658 3.76707 9.91671 2.96239 12.1725 3.00661C14.4283 3.05084 16.5853 3.94074 18.216 5.50002C19.8467 7.0593 20.8323 9.17421 20.9775 11.4258C21.1226 13.6773 20.4168 15.9013 18.9999 17.6571" stroke="white" stroke-width="2" stroke-linecap="round" stroke-linejoin="round"/>
<path d="M15 12V9" stroke="white" stroke-width="2" stroke-linecap="round" stroke-linejoin="round"/>
</g>
<defs>
<clipPath id="clip0_103_2">
<rect width="24" height="24" fill="white"/>
</clipPath>
</defs>
</svg>
